<svg version="1.1" id="Layer_1" xmlns="http://www.w3.org/2000/svg" xmlns:xlink="http://www.w3.org/1999/xlink" x="0px" y="0px"
	 width="100%" viewBox="0 0 500 500" enable-background="new 0 0 500 500" xml:space="preserve">
<path fill="#FFFFFF" opacity="1.000000" stroke="none" 
	d="
M291.000000,501.000000 
	C194.000031,501.000000 97.500046,501.000000 1.000052,501.000000 
	C1.000035,334.333405 1.000035,167.666794 1.000017,1.000141 
	C167.666565,1.000094 334.333130,1.000094 500.999756,1.000047 
	C500.999847,167.666519 500.999847,334.333038 500.999939,500.999786 
	C431.166656,501.000000 361.333344,501.000000 291.000000,501.000000 
M331.500000,299.003845 
	C362.600555,299.003845 393.701141,299.003845 424.763550,299.003845 
	C424.763550,266.717255 424.763550,234.980820 424.763550,203.359451 
	C308.608063,203.359451 192.731506,203.359451 76.948570,203.359451 
	C76.948570,235.341049 76.948570,266.959076 76.948570,299.003845 
	C161.589813,299.003845 246.044907,299.003845 331.500000,299.003845 
z"/>
<path fill="#020202" opacity="1.000000" stroke="none" 
	d="
M331.000000,299.003845 
	C246.044907,299.003845 161.589813,299.003845 76.948570,299.003845 
	C76.948570,266.959076 76.948570,235.341049 76.948570,203.359451 
	C192.731506,203.359451 308.608063,203.359451 424.763550,203.359451 
	C424.763550,234.980820 424.763550,266.717255 424.763550,299.003845 
	C393.701141,299.003845 362.600555,299.003845 331.000000,299.003845 
M266.500000,296.000366 
	C318.259277,296.000366 370.018555,296.000366 421.939514,296.000366 
	C421.939514,265.842834 421.939514,236.121445 421.939514,206.221008 
	C307.716827,206.221008 193.699036,206.221008 79.472137,206.221008 
	C79.472137,236.161514 79.472137,265.880463 79.472137,296.000366 
	C141.643707,296.000366 203.571854,296.000366 266.500000,296.000366 
z"/>
<path fill="#FDFDFD" opacity="1.000000" stroke="none" 
	d="
M266.000000,296.000366 
	C203.571854,296.000366 141.643707,296.000366 79.472137,296.000366 
	C79.472137,265.880463 79.472137,236.161514 79.472137,206.221008 
	C193.699036,206.221008 307.716827,206.221008 421.939514,206.221008 
	C421.939514,236.121445 421.939514,265.842834 421.939514,296.000366 
	C370.018555,296.000366 318.259277,296.000366 266.000000,296.000366 
M131.500000,289.997559 
	C171.096573,289.997559 210.693146,289.997559 250.125259,289.997559 
	C250.125259,263.716248 250.125259,237.990417 250.125259,212.303360 
	C195.276505,212.303360 140.734192,212.303360 86.292725,212.303360 
	C86.292725,238.333893 86.292725,264.062561 86.292725,289.997559 
	C101.223579,289.997559 115.861786,289.997559 131.500000,289.997559 
M386.295013,258.004822 
	C387.374207,259.028687 388.346741,260.204590 389.551331,261.049652 
	C394.390442,264.444397 402.157471,264.295166 406.911163,260.826294 
	C411.478394,257.493469 413.414215,251.356888 411.696350,245.657135 
	C410.070007,240.261002 405.173584,236.632675 398.940460,236.204758 
	C387.182159,235.397537 380.548218,246.149017 386.295013,258.004822 
M360.194580,237.912720 
	C354.530151,237.436996 348.865723,236.961273 343.268799,236.491211 
	C343.268799,245.958633 343.268799,254.366028 343.268799,262.992737 
	C347.178802,262.992737 350.817322,263.081421 354.450073,262.973694 
	C361.292267,262.770813 366.231049,259.283325 367.758301,253.725067 
	C369.491516,247.417267 367.159851,242.080887 360.194580,237.912720 
M281.833099,238.570023 
	C277.827271,235.760315 273.297211,235.141296 269.125977,237.315887 
	C266.981171,238.434067 264.722443,241.350403 264.528870,243.625458 
	C264.336731,245.883896 266.254364,248.760498 268.035492,250.603943 
	C269.367859,251.982941 272.012299,252.020752 273.960724,252.902634 
	C275.377747,253.543961 276.612244,254.588486 277.928131,255.453247 
	C277.714325,256.086823 277.500549,256.720398 277.286743,257.353973 
	C275.602814,257.106995 273.095154,257.468140 272.383118,256.503662 
	C269.833801,253.050507 267.038300,254.628693 264.038544,254.939423 
	C264.558319,259.472870 266.823151,262.659027 270.778992,262.832886 
	C274.823700,263.010620 279.519836,262.594513 282.874786,260.632568 
	C287.056946,258.186829 285.952057,251.518692 281.486847,249.033066 
	C279.357544,247.847778 276.787231,247.481140 274.539032,246.471359 
	C273.482269,245.996719 272.646423,244.934158 271.881317,243.998352 
	C271.750275,243.838058 272.453491,242.536804 272.816559,242.514969 
	C274.048492,242.440903 275.364441,242.505280 276.532196,242.879272 
	C279.141907,243.715042 281.681580,244.769455 284.249786,245.734802 
	C284.552734,245.213852 284.855713,244.692917 285.158661,244.171982 
	C284.239380,242.476212 283.320129,240.780426 281.833099,238.570023 
M315.162262,255.677338 
	C317.862061,261.853394 321.690002,264.168335 327.944946,263.407623 
	C333.476166,262.734924 337.004028,259.840088 337.497498,254.313187 
	C338.006836,248.608871 337.610687,242.823730 337.610687,237.128632 
	C334.980896,237.128632 332.730133,237.128632 330.131378,237.128632 
	C330.131378,241.856949 330.140839,246.310669 330.127747,250.764328 
	C330.120178,253.340271 330.080017,256.063873 326.607239,256.265686 
	C322.862061,256.483337 322.393341,253.672104 322.333313,250.886551 
	C322.234528,246.303146 322.306519,241.716064 322.306519,237.155350 
	C319.503845,237.155350 317.290344,237.155350 315.022491,237.155350 
	C315.022491,243.252777 315.022491,249.040512 315.162262,255.677338 
M303.450378,236.863052 
	C298.207092,236.863052 292.963806,236.863052 287.506897,236.863052 
	C287.626709,239.579117 287.717377,241.634384 287.808807,243.707260 
	C290.686676,243.840195 292.943451,243.944443 295.559998,244.065308 
	C295.559998,250.447083 295.559998,256.514771 295.559998,262.785645 
	C298.170502,262.785645 300.401947,262.785645 303.115601,262.785645 
	C303.115601,256.394745 303.115601,250.179520 303.115601,244.004684 
	C306.019287,243.874664 308.435425,243.766479 310.686401,243.665695 
	C310.686401,241.132812 310.686401,239.073563 310.686401,236.863052 
	C308.385376,236.863052 306.409698,236.863052 303.450378,236.863052 
M372.152893,247.524933 
	C372.152893,252.599518 372.152893,257.674103 372.152893,262.833160 
	C374.968170,262.833160 377.224335,262.833160 379.669067,262.833160 
	C379.669067,254.139206 379.669067,245.634384 379.669067,237.041656 
	C377.146301,237.041656 374.890961,237.041656 372.152893,237.041656 
	C372.152893,240.335281 372.152893,243.437744 372.152893,247.524933 
z"/>
<path fill="#010101" opacity="1.000000" stroke="none" 
	d="
M131.000000,289.997559 
	C115.861786,289.997559 101.223579,289.997559 86.292725,289.997559 
	C86.292725,264.062561 86.292725,238.333893 86.292725,212.303360 
	C140.734192,212.303360 195.276505,212.303360 250.125259,212.303360 
	C250.125259,237.990417 250.125259,263.716248 250.125259,289.997559 
	C210.693146,289.997559 171.096573,289.997559 131.000000,289.997559 
M118.253998,245.633728 
	C120.112946,248.387222 122.030243,251.103546 123.814804,253.904419 
	C125.682625,256.835968 127.432968,257.031128 129.400223,254.008636 
	C131.436401,250.880264 133.568542,247.814331 135.658707,244.721085 
	C135.952454,244.823013 136.246185,244.924927 136.539917,245.026855 
	C136.539917,250.908936 136.539917,256.791016 136.539917,264.247925 
	C138.381531,262.626373 139.898773,261.919159 139.914474,261.180084 
	C140.085495,253.125793 140.021530,245.066528 140.021530,235.572830 
	C132.722061,239.787903 131.387772,247.351761 126.600922,251.591721 
	C121.853378,246.904480 120.475464,239.601868 113.495605,235.956177 
	C113.495605,245.753204 113.495605,254.289505 113.495605,262.825806 
	C114.025070,263.020111 114.554535,263.214417 115.084000,263.408722 
	C115.637535,262.231171 116.560974,261.089691 116.679787,259.869812 
	C117.162285,254.915939 117.397797,249.938004 118.253998,245.633728 
M199.683792,262.948761 
	C199.917465,262.762909 200.383682,262.484650 200.351761,262.404358 
	C197.171738,254.404968 194.118530,246.348129 190.651871,238.473419 
	C189.392044,235.611694 187.215988,236.107162 186.059982,238.840378 
	C182.731857,246.709274 179.556488,254.642776 176.283249,262.643433 
	C181.732574,264.291138 180.059067,258.568787 182.956696,257.034332 
	C188.127823,257.638580 195.176300,254.370056 197.889633,262.914215 
	C197.928619,263.036926 198.510880,262.987061 199.683792,262.948761 
M164.914856,245.522552 
	C164.002182,243.389664 163.235306,241.175644 162.113297,239.159225 
	C161.578262,238.197662 160.443192,237.191238 159.436035,237.011581 
	C158.820816,236.901825 157.597824,238.183640 157.218887,239.081497 
	C153.941360,246.847000 150.793625,254.667282 147.179413,263.519073 
	C149.110229,262.820679 150.999237,262.599030 151.113068,262.025208 
	C152.326477,255.908508 156.911255,257.113220 161.097229,256.992279 
	C164.343979,256.898499 166.853683,257.195984 167.852005,260.995758 
	C168.115829,261.999878 170.007751,262.576294 171.152069,263.349091 
	C171.363724,263.007996 171.575363,262.666901 171.787018,262.325806 
	C169.566483,256.970978 167.345963,251.616165 164.914856,245.522552 
M219.239838,236.847290 
	C216.413071,236.847244 213.574554,236.694962 210.764542,236.911880 
	C209.375656,237.019104 208.039337,237.807144 206.679245,238.287155 
	C208.117157,238.854889 209.521317,239.771851 211.000275,239.914734 
	C213.736786,240.179108 216.517075,239.990356 220.004547,239.990356 
	C214.834625,247.764313 210.088272,254.901367 204.688309,263.021240 
	C211.775970,263.021240 217.087082,263.084564 222.393661,262.957764 
	C223.259613,262.937042 224.105499,262.076630 224.960663,261.604340 
	C224.031464,261.034790 223.126389,260.026672 222.168747,259.973938 
	C218.604889,259.777832 215.023773,259.895691 210.736511,259.895691 
	C215.864838,252.159561 220.551483,245.089706 225.801132,237.170578 
	C223.009521,237.010910 221.579590,236.929123 219.239838,236.847290 
z"/>
<path fill="#090909" opacity="1.000000" stroke="none" 
	d="
M386.095642,257.675049 
	C380.548218,246.149017 387.182159,235.397537 398.940460,236.204758 
	C405.173584,236.632675 410.070007,240.261002 411.696350,245.657135 
	C413.414215,251.356888 411.478394,257.493469 406.911163,260.826294 
	C402.157471,264.295166 394.390442,264.444397 389.551331,261.049652 
	C388.346741,260.204590 387.374207,259.028687 386.095642,257.675049 
M392.057800,247.131042 
	C391.133575,251.033813 391.454773,254.566544 395.855865,256.010498 
	C399.119476,257.081268 402.780487,256.468842 403.624756,252.934860 
	C404.228729,250.406448 403.489349,246.399506 401.744263,244.725418 
	C398.756134,241.858871 395.026093,242.912476 392.057800,247.131042 
z"/>
<path fill="#080808" opacity="1.000000" stroke="none" 
	d="
M360.574951,238.034027 
	C367.159851,242.080887 369.491516,247.417267 367.758301,253.725067 
	C366.231049,259.283325 361.292267,262.770813 354.450073,262.973694 
	C350.817322,263.081421 347.178802,262.992737 343.268799,262.992737 
	C343.268799,254.366028 343.268799,245.958633 343.268799,236.491211 
	C348.865723,236.961273 354.530151,237.436996 360.574951,238.034027 
M350.674866,247.534760 
	C350.674866,250.311478 350.674866,253.088196 350.674866,256.035919 
	C352.376801,256.035919 353.531586,256.151611 354.655914,256.015625 
	C359.227142,255.462769 362.008057,251.271194 359.728973,247.425430 
	C358.630219,245.571396 355.646057,244.672409 353.337524,243.828064 
	C352.848419,243.649185 351.583252,245.592102 350.674866,247.534760 
z"/>
<path fill="#0D0D0D" opacity="1.000000" stroke="none" 
	d="
M282.117004,238.827332 
	C283.320129,240.780426 284.239380,242.476212 285.158661,244.171982 
	C284.855713,244.692917 284.552734,245.213852 284.249786,245.734802 
	C281.681580,244.769455 279.141907,243.715042 276.532196,242.879272 
	C275.364441,242.505280 274.048492,242.440903 272.816559,242.514969 
	C272.453491,242.536804 271.750275,243.838058 271.881317,243.998352 
	C272.646423,244.934158 273.482269,245.996719 274.539032,246.471359 
	C276.787231,247.481140 279.357544,247.847778 281.486847,249.033066 
	C285.952057,251.518692 287.056946,258.186829 282.874786,260.632568 
	C279.519836,262.594513 274.823700,263.010620 270.778992,262.832886 
	C266.823151,262.659027 264.558319,259.472870 264.038544,254.939423 
	C267.038300,254.628693 269.833801,253.050507 272.383118,256.503662 
	C273.095154,257.468140 275.602814,257.106995 277.286743,257.353973 
	C277.500549,256.720398 277.714325,256.086823 277.928131,255.453247 
	C276.612244,254.588486 275.377747,253.543961 273.960724,252.902634 
	C272.012299,252.020752 269.367859,251.982941 268.035492,250.603943 
	C266.254364,248.760498 264.336731,245.883896 264.528870,243.625458 
	C264.722443,241.350403 266.981171,238.434067 269.125977,237.315887 
	C273.297211,235.141296 277.827271,235.760315 282.117004,238.827332 
z"/>
<path fill="#090909" opacity="1.000000" stroke="none" 
	d="
M315.092377,255.252808 
	C315.022491,249.040512 315.022491,243.252777 315.022491,237.155350 
	C317.290344,237.155350 319.503845,237.155350 322.306519,237.155350 
	C322.306519,241.716064 322.234528,246.303146 322.333313,250.886551 
	C322.393341,253.672104 322.862061,256.483337 326.607239,256.265686 
	C330.080017,256.063873 330.120178,253.340271 330.127747,250.764328 
	C330.140839,246.310669 330.131378,241.856949 330.131378,237.128632 
	C332.730133,237.128632 334.980896,237.128632 337.610687,237.128632 
	C337.610687,242.823730 338.006836,248.608871 337.497498,254.313187 
	C337.004028,259.840088 333.476166,262.734924 327.944946,263.407623 
	C321.690002,264.168335 317.862061,261.853394 315.092377,255.252808 
z"/>
<path fill="#020202" opacity="1.000000" stroke="none" 
	d="
M303.942200,236.863052 
	C306.409698,236.863052 308.385376,236.863052 310.686401,236.863052 
	C310.686401,239.073563 310.686401,241.132812 310.686401,243.665695 
	C308.435425,243.766479 306.019287,243.874664 303.115601,244.004684 
	C303.115601,250.179520 303.115601,256.394745 303.115601,262.785645 
	C300.401947,262.785645 298.170502,262.785645 295.559998,262.785645 
	C295.559998,256.514771 295.559998,250.447083 295.559998,244.065308 
	C292.943451,243.944443 290.686676,243.840195 287.808807,243.707260 
	C287.717377,241.634384 287.626709,239.579117 287.506897,236.863052 
	C292.963806,236.863052 298.207092,236.863052 303.942200,236.863052 
z"/>
<path fill="#0D0D0D" opacity="1.000000" stroke="none" 
	d="
M372.152893,247.032578 
	C372.152893,243.437744 372.152893,240.335281 372.152893,237.041656 
	C374.890961,237.041656 377.146301,237.041656 379.669067,237.041656 
	C379.669067,245.634384 379.669067,254.139206 379.669067,262.833160 
	C377.224335,262.833160 374.968170,262.833160 372.152893,262.833160 
	C372.152893,257.674103 372.152893,252.599518 372.152893,247.032578 
z"/>
<path fill="#E9E9E9" opacity="1.000000" stroke="none" 
	d="
M117.989197,245.301331 
	C117.397797,249.938004 117.162285,254.915939 116.679787,259.869812 
	C116.560974,261.089691 115.637535,262.231171 115.084000,263.408722 
	C114.554535,263.214417 114.025070,263.020111 113.495605,262.825806 
	C113.495605,254.289505 113.495605,245.753204 113.495605,235.956177 
	C120.475464,239.601868 121.853378,246.904480 126.600922,251.591721 
	C131.387772,247.351761 132.722061,239.787903 140.021530,235.572830 
	C140.021530,245.066528 140.085495,253.125793 139.914474,261.180084 
	C139.898773,261.919159 138.381531,262.626373 136.539917,264.247925 
	C136.539917,256.791016 136.539917,250.908936 136.539917,245.026855 
	C136.246185,244.924927 135.952454,244.823013 135.658707,244.721085 
	C133.568542,247.814331 131.436401,250.880264 129.400223,254.008636 
	C127.432968,257.031128 125.682625,256.835968 123.814804,253.904419 
	C122.030243,251.103546 120.112946,248.387222 117.989197,245.301331 
z"/>
<path fill="#F0F0F0" opacity="1.000000" stroke="none" 
	d="
M199.261688,262.983246 
	C198.510880,262.987061 197.928619,263.036926 197.889633,262.914215 
	C195.176300,254.370056 188.127823,257.638580 182.956696,257.034332 
	C180.059067,258.568787 181.732574,264.291138 176.283249,262.643433 
	C179.556488,254.642776 182.731857,246.709274 186.059982,238.840378 
	C187.215988,236.107162 189.392044,235.611694 190.651871,238.473419 
	C194.118530,246.348129 197.171738,254.404968 200.351761,262.404358 
	C200.383682,262.484650 199.917465,262.762909 199.261688,262.983246 
M184.380371,251.312805 
	C184.743805,252.203522 185.033905,253.819168 185.482834,253.864578 
	C187.967819,254.115906 190.491486,253.984940 193.566772,253.984940 
	C191.725830,249.542297 190.227570,245.926651 188.419144,241.562454 
	C186.977905,245.135986 185.878220,247.862656 184.380371,251.312805 
z"/>
<path fill="#F0F0F0" opacity="1.000000" stroke="none" 
	d="
M165.020142,245.891937 
	C167.345963,251.616165 169.566483,256.970978 171.787018,262.325806 
	C171.575363,262.666901 171.363724,263.007996 171.152069,263.349091 
	C170.007751,262.576294 168.115829,261.999878 167.852005,260.995758 
	C166.853683,257.195984 164.343979,256.898499 161.097229,256.992279 
	C156.911255,257.113220 152.326477,255.908508 151.113068,262.025208 
	C150.999237,262.599030 149.110229,262.820679 147.179413,263.519073 
	C150.793625,254.667282 153.941360,246.847000 157.218887,239.081497 
	C157.597824,238.183640 158.820816,236.901825 159.436035,237.011581 
	C160.443192,237.191238 161.578262,238.197662 162.113297,239.159225 
	C163.235306,241.175644 164.002182,243.389664 165.020142,245.891937 
M160.494934,253.994019 
	C161.722992,253.930145 162.951035,253.866287 164.702942,253.775162 
	C162.981018,249.572464 161.493011,245.940704 159.686783,241.532257 
	C157.849915,246.067825 156.344757,249.784332 154.639862,253.994034 
	C156.682388,253.994034 158.141922,253.994034 160.494934,253.994019 
z"/>
<path fill="#F3F3F3" opacity="1.000000" stroke="none" 
	d="
M219.694733,236.847321 
	C221.579590,236.929123 223.009521,237.010910 225.801132,237.170578 
	C220.551483,245.089706 215.864838,252.159561 210.736511,259.895691 
	C215.023773,259.895691 218.604889,259.777832 222.168747,259.973938 
	C223.126389,260.026672 224.031464,261.034790 224.960663,261.604340 
	C224.105499,262.076630 223.259613,262.937042 222.393661,262.957764 
	C217.087082,263.084564 211.775970,263.021240 204.688309,263.021240 
	C210.088272,254.901367 214.834625,247.764313 220.004547,239.990356 
	C216.517075,239.990356 213.736786,240.179108 211.000275,239.914734 
	C209.521317,239.771851 208.117157,238.854889 206.679245,238.287155 
	C208.039337,237.807144 209.375656,237.019104 210.764542,236.911880 
	C213.574554,236.694962 216.413071,236.847244 219.694733,236.847321 
z"/>
<path fill="#F3F3F3" opacity="1.000000" stroke="none" 
	d="
M392.234375,246.763092 
	C395.026093,242.912476 398.756134,241.858871 401.744263,244.725418 
	C403.489349,246.399506 404.228729,250.406448 403.624756,252.934860 
	C402.780487,256.468842 399.119476,257.081268 395.855865,256.010498 
	C391.454773,254.566544 391.133575,251.033813 392.234375,246.763092 
z"/>
<path fill="#FDFDFD" opacity="1.000000" stroke="none" 
	d="
M350.675232,247.046097 
	C351.583252,245.592102 352.848419,243.649185 353.337524,243.828064 
	C355.646057,244.672409 358.630219,245.571396 359.728973,247.425430 
	C362.008057,251.271194 359.227142,255.462769 354.655914,256.015625 
	C353.531586,256.151611 352.376801,256.035919 350.674866,256.035919 
	C350.674866,253.088196 350.674866,250.311478 350.675232,247.046097 
z"/>
<path fill="#0D0D0D" opacity="1.000000" stroke="none" 
	d="
M184.579453,250.951080 
	C185.878220,247.862656 186.977905,245.135986 188.419144,241.562454 
	C190.227570,245.926651 191.725830,249.542297 193.566772,253.984940 
	C190.491486,253.984940 187.967819,254.115906 185.482834,253.864578 
	C185.033905,253.819168 184.743805,252.203522 184.579453,250.951080 
z"/>
<path fill="#0D0D0D" opacity="1.000000" stroke="none" 
	d="
M160.048203,253.994019 
	C158.141922,253.994034 156.682388,253.994034 154.639862,253.994034 
	C156.344757,249.784332 157.849915,246.067825 159.686783,241.532257 
	C161.493011,245.940704 162.981018,249.572464 164.702942,253.775162 
	C162.951035,253.866287 161.722992,253.930145 160.048203,253.994019 
z"/>
</svg>